<mxfile host="app.diagrams.net" modified="2020-11-23T23:08:20.671Z" agent="5.0 (Macintosh; Intel Mac OS X 10_15_6) AppleWebKit/537.36 (KHTML, like Gecko) Chrome/86.0.4240.198 Safari/537.36" etag="RGZI3NF4edRGsUuQj6BD" version="13.6.9" type="github">
  <diagram id="b5BBvvnoYghZVw3N3fzL" name="Page-1">
    <mxGraphModel dx="1426" dy="769" grid="1" gridSize="10" guides="1" tooltips="1" connect="1" arrows="1" fold="1" page="1" pageScale="1" pageWidth="827" pageHeight="1169" math="0" shadow="0">
      <root>
        <mxCell id="0" />
        <mxCell id="1" parent="0" />
        <mxCell id="hjDG5RWEAZ4B85BI5jkp-1" value="Wordpress PreProd&lt;br&gt;Admin" style="rounded=0;whiteSpace=wrap;html=1;" parent="1" vertex="1">
          <mxGeometry x="170" y="40" width="110" height="80" as="geometry" />
        </mxCell>
        <mxCell id="hjDG5RWEAZ4B85BI5jkp-2" value="Wordpress Prod" style="rounded=0;whiteSpace=wrap;html=1;" parent="1" vertex="1">
          <mxGeometry x="814" y="40" width="110" height="80" as="geometry" />
        </mxCell>
        <mxCell id="hjDG5RWEAZ4B85BI5jkp-5" value="Webmaster" style="shape=umlActor;verticalLabelPosition=bottom;verticalAlign=top;html=1;" parent="1" vertex="1">
          <mxGeometry x="55" y="40" width="30" height="60" as="geometry" />
        </mxCell>
        <mxCell id="hjDG5RWEAZ4B85BI5jkp-6" value="Serveur SSH &lt;br&gt;Infomaniak" style="html=1;" parent="1" vertex="1">
          <mxGeometry x="520" y="40" width="110" height="80" as="geometry" />
        </mxCell>
        <mxCell id="hjDG5RWEAZ4B85BI5jkp-10" value="" style="shape=umlLifeline;participant=umlActor;perimeter=lifelinePerimeter;whiteSpace=wrap;html=1;container=1;collapsible=0;recursiveResize=0;verticalAlign=top;spacingTop=36;outlineConnect=0;size=0;" parent="1" vertex="1">
          <mxGeometry x="60" y="120" width="20" height="920" as="geometry" />
        </mxCell>
        <mxCell id="hjDG5RWEAZ4B85BI5jkp-14" value="" style="html=1;points=[];perimeter=orthogonalPerimeter;" parent="hjDG5RWEAZ4B85BI5jkp-10" vertex="1">
          <mxGeometry x="5" y="10" width="10" height="80" as="geometry" />
        </mxCell>
        <mxCell id="hjDG5RWEAZ4B85BI5jkp-22" value="" style="html=1;points=[];perimeter=orthogonalPerimeter;" parent="hjDG5RWEAZ4B85BI5jkp-10" vertex="1">
          <mxGeometry x="5" y="200" width="10" height="80" as="geometry" />
        </mxCell>
        <mxCell id="hjDG5RWEAZ4B85BI5jkp-11" value="" style="shape=umlLifeline;participant=umlActor;perimeter=lifelinePerimeter;whiteSpace=wrap;html=1;container=1;collapsible=0;recursiveResize=0;verticalAlign=top;spacingTop=36;outlineConnect=0;size=0;" parent="1" vertex="1">
          <mxGeometry x="215" y="120" width="20" height="920" as="geometry" />
        </mxCell>
        <mxCell id="hjDG5RWEAZ4B85BI5jkp-17" value="" style="html=1;points=[];perimeter=orthogonalPerimeter;" parent="hjDG5RWEAZ4B85BI5jkp-11" vertex="1">
          <mxGeometry x="5" y="20" width="10" height="80" as="geometry" />
        </mxCell>
        <mxCell id="hjDG5RWEAZ4B85BI5jkp-12" value="" style="shape=umlLifeline;participant=umlActor;perimeter=lifelinePerimeter;whiteSpace=wrap;html=1;container=1;collapsible=0;recursiveResize=0;verticalAlign=top;spacingTop=36;outlineConnect=0;size=0;" parent="1" vertex="1">
          <mxGeometry x="565" y="120" width="20" height="920" as="geometry" />
        </mxCell>
        <mxCell id="hjDG5RWEAZ4B85BI5jkp-23" value="" style="html=1;points=[];perimeter=orthogonalPerimeter;" parent="hjDG5RWEAZ4B85BI5jkp-12" vertex="1">
          <mxGeometry x="5" y="200" width="10" height="80" as="geometry" />
        </mxCell>
        <mxCell id="hjDG5RWEAZ4B85BI5jkp-37" value="" style="html=1;points=[];perimeter=orthogonalPerimeter;" parent="hjDG5RWEAZ4B85BI5jkp-12" vertex="1">
          <mxGeometry x="5" y="340" width="10" height="80" as="geometry" />
        </mxCell>
        <mxCell id="hjDG5RWEAZ4B85BI5jkp-13" value="" style="shape=umlLifeline;participant=umlActor;perimeter=lifelinePerimeter;whiteSpace=wrap;html=1;container=1;collapsible=0;recursiveResize=0;verticalAlign=top;spacingTop=36;outlineConnect=0;size=0;" parent="1" vertex="1">
          <mxGeometry x="850" y="120" width="20" height="920" as="geometry" />
        </mxCell>
        <mxCell id="hjDG5RWEAZ4B85BI5jkp-25" value="" style="html=1;points=[];perimeter=orthogonalPerimeter;" parent="hjDG5RWEAZ4B85BI5jkp-13" vertex="1">
          <mxGeometry x="5" y="370" width="10" height="80" as="geometry" />
        </mxCell>
        <mxCell id="hjDG5RWEAZ4B85BI5jkp-15" value="Wordpress PreProd&lt;br&gt;http" style="rounded=0;whiteSpace=wrap;html=1;" parent="1" vertex="1">
          <mxGeometry x="350" y="40" width="110" height="80" as="geometry" />
        </mxCell>
        <mxCell id="hjDG5RWEAZ4B85BI5jkp-16" value="" style="shape=umlLifeline;participant=umlActor;perimeter=lifelinePerimeter;whiteSpace=wrap;html=1;container=1;collapsible=0;recursiveResize=0;verticalAlign=top;spacingTop=36;outlineConnect=0;size=0;" parent="1" vertex="1">
          <mxGeometry x="390" y="120" width="20" height="920" as="geometry" />
        </mxCell>
        <mxCell id="hjDG5RWEAZ4B85BI5jkp-20" value="" style="html=1;points=[];perimeter=orthogonalPerimeter;" parent="hjDG5RWEAZ4B85BI5jkp-16" vertex="1">
          <mxGeometry x="5" y="100" width="10" height="80" as="geometry" />
        </mxCell>
        <mxCell id="hjDG5RWEAZ4B85BI5jkp-18" value="Edit site" style="html=1;verticalAlign=bottom;endArrow=block;entryX=-0.2;entryY=0.488;entryDx=0;entryDy=0;entryPerimeter=0;" parent="1" target="hjDG5RWEAZ4B85BI5jkp-17" edge="1">
          <mxGeometry width="80" relative="1" as="geometry">
            <mxPoint x="70" y="180" as="sourcePoint" />
            <mxPoint x="150" y="180" as="targetPoint" />
          </mxGeometry>
        </mxCell>
        <mxCell id="hjDG5RWEAZ4B85BI5jkp-19" value="" style="html=1;points=[];perimeter=orthogonalPerimeter;" parent="1" vertex="1">
          <mxGeometry x="65" y="220" width="10" height="80" as="geometry" />
        </mxCell>
        <mxCell id="hjDG5RWEAZ4B85BI5jkp-21" value="Check site" style="html=1;verticalAlign=bottom;endArrow=block;" parent="1" target="hjDG5RWEAZ4B85BI5jkp-16" edge="1">
          <mxGeometry width="80" relative="1" as="geometry">
            <mxPoint x="75" y="260.46" as="sourcePoint" />
            <mxPoint x="223" y="259.49999999999994" as="targetPoint" />
          </mxGeometry>
        </mxCell>
        <mxCell id="hjDG5RWEAZ4B85BI5jkp-24" value="Launch synchro script" style="html=1;verticalAlign=bottom;endArrow=block;entryX=-0.2;entryY=0.5;entryDx=0;entryDy=0;entryPerimeter=0;" parent="1" target="hjDG5RWEAZ4B85BI5jkp-23" edge="1">
          <mxGeometry width="80" relative="1" as="geometry">
            <mxPoint x="75" y="360.00000000000006" as="sourcePoint" />
            <mxPoint x="399.5" y="360.00000000000006" as="targetPoint" />
          </mxGeometry>
        </mxCell>
        <mxCell id="hjDG5RWEAZ4B85BI5jkp-26" value="Push code" style="html=1;verticalAlign=bottom;endArrow=block;" parent="1" edge="1">
          <mxGeometry width="80" relative="1" as="geometry">
            <mxPoint x="580" y="380.00000000000006" as="sourcePoint" />
            <mxPoint x="720" y="380" as="targetPoint" />
          </mxGeometry>
        </mxCell>
        <mxCell id="hjDG5RWEAZ4B85BI5jkp-29" value="Gitlab" style="html=1;" parent="1" vertex="1">
          <mxGeometry x="670" y="40" width="110" height="80" as="geometry" />
        </mxCell>
        <mxCell id="hjDG5RWEAZ4B85BI5jkp-30" value="" style="shape=umlLifeline;participant=umlActor;perimeter=lifelinePerimeter;whiteSpace=wrap;html=1;container=1;collapsible=0;recursiveResize=0;verticalAlign=top;spacingTop=36;outlineConnect=0;size=0;" parent="1" vertex="1">
          <mxGeometry x="715" y="120" width="20" height="920" as="geometry" />
        </mxCell>
        <mxCell id="hjDG5RWEAZ4B85BI5jkp-31" value="" style="html=1;points=[];perimeter=orthogonalPerimeter;" parent="hjDG5RWEAZ4B85BI5jkp-30" vertex="1">
          <mxGeometry x="5" y="190" width="10" height="180" as="geometry" />
        </mxCell>
        <mxCell id="hjDG5RWEAZ4B85BI5jkp-36" value="" style="html=1;verticalAlign=bottom;endArrow=block;entryX=1.2;entryY=0.2;entryDx=0;entryDy=0;entryPerimeter=0;exitX=0;exitY=0.688;exitDx=0;exitDy=0;exitPerimeter=0;" parent="1" target="hjDG5RWEAZ4B85BI5jkp-37" edge="1">
          <mxGeometry width="80" relative="1" as="geometry">
            <mxPoint x="720" y="475.03999999999996" as="sourcePoint" />
            <mxPoint x="860" y="430" as="targetPoint" />
          </mxGeometry>
        </mxCell>
        <mxCell id="hjDG5RWEAZ4B85BI5jkp-38" value="Launch update script" style="edgeLabel;html=1;align=center;verticalAlign=middle;resizable=0;points=[];" parent="hjDG5RWEAZ4B85BI5jkp-36" vertex="1" connectable="0">
          <mxGeometry x="0.2465" y="1" relative="1" as="geometry">
            <mxPoint x="15.99" y="-16.64" as="offset" />
          </mxGeometry>
        </mxCell>
        <mxCell id="hjDG5RWEAZ4B85BI5jkp-39" value="Update production" style="html=1;verticalAlign=bottom;endArrow=block;entryX=0.1;entryY=0.363;entryDx=0;entryDy=0;entryPerimeter=0;" parent="1" target="hjDG5RWEAZ4B85BI5jkp-25" edge="1">
          <mxGeometry x="-0.25" width="80" relative="1" as="geometry">
            <mxPoint x="585" y="520" as="sourcePoint" />
            <mxPoint x="665" y="520" as="targetPoint" />
            <Array as="points">
              <mxPoint x="720" y="519" />
              <mxPoint x="800" y="519" />
            </Array>
            <mxPoint as="offset" />
          </mxGeometry>
        </mxCell>
      </root>
    </mxGraphModel>
  </diagram>
</mxfile>
